<?xml version="1.0" standalone="no"?>
<!DOCTYPE svg PUBLIC "-//W3C//DTD SVG 20010904//EN"
 "http://www.w3.org/TR/2001/REC-SVG-20010904/DTD/svg10.dtd">
<svg version="1.0" xmlns="http://www.w3.org/2000/svg"
 width="996.000000pt" height="872.000000pt" viewBox="0 0 996.000000 872.000000"
 preserveAspectRatio="xMidYMid meet">

<g transform="translate(0.000000,872.000000) scale(0.100000,-0.100000)"
fill="#000000" stroke="none">
<path d="M2908 6432 c-39 -47 -110 -197 -124 -265 -20 -94 -5 -124 46 -97 43
23 124 31 195 19 76 -12 294 -79 445 -135 52 -19 127 -47 165 -61 67 -25 227
-90 290 -118 24 -11 229 -95 323 -132 40 -16 -27 -53 -97 -53 -66 0 -182 25
-231 50 -21 11 -41 20 -44 20 -3 0 -8 -16 -12 -35 -8 -44 -15 -49 -94 -70 -36
-9 -75 -22 -87 -27 -33 -16 -175 -2 -230 22 -25 11 -49 20 -54 20 -14 0 -10
-42 6 -70 20 -35 20 -36 -27 -35 -45 0 -196 -36 -262 -64 -79 -32 -293 -144
-356 -187 -107 -71 -243 -178 -274 -214 -26 -32 -27 -35 -10 -47 10 -7 26 -13
35 -13 29 0 193 70 202 85 4 8 17 15 27 15 18 0 20 -7 20 -70 0 -53 3 -70 14
-70 18 0 156 58 176 74 8 7 26 18 40 25 14 7 50 25 80 41 l55 28 3 -25 c3 -20
-10 -38 -58 -85 -51 -48 -60 -62 -50 -73 7 -8 22 -15 33 -15 31 0 157 40 209
66 46 23 98 40 223 70 33 8 70 22 83 30 12 8 26 13 31 10 4 -3 2 -38 -6 -78
-14 -72 -10 -152 7 -163 13 -8 157 140 180 186 11 21 28 39 37 39 14 0 15 -10
10 -77 -4 -43 -10 -102 -13 -130 -9 -69 6 -75 77 -28 29 19 57 35 62 35 18 0
126 103 131 126 4 13 13 24 21 24 15 0 20 -17 16 -55 -3 -31 18 -139 34 -180
l16 -36 27 20 c24 17 50 48 96 116 12 16 16 17 30 6 9 -7 20 -30 26 -50 12
-45 79 -135 104 -139 16 -3 18 0 12 19 -4 13 -10 41 -13 62 -4 30 -2 37 10 37
9 0 22 -7 29 -15 7 -9 22 -25 33 -36 15 -15 21 -38 25 -87 5 -63 6 -67 31 -70
24 -3 26 -1 25 39 -1 26 4 44 12 46 31 11 122 -129 122 -188 0 -15 -6 -39 -14
-53 -11 -23 -11 -34 3 -82 15 -52 18 -55 44 -51 15 2 27 0 27 -3 0 -4 -16 -38
-36 -76 -26 -51 -57 -89 -120 -148 -52 -48 -95 -98 -110 -127 -13 -27 -30 -49
-37 -49 -6 0 -18 -4 -26 -9 -11 -7 10 -35 95 -126 l109 -117 12 58 c12 63 93
243 139 309 36 54 45 85 50 184 5 102 18 132 64 148 l35 12 -30 2 c-16 2 -40
3 -52 4 -44 2 -49 20 -19 75 29 52 28 70 -4 70 -14 0 -22 -11 -30 -40 -6 -22
-15 -38 -20 -35 -16 10 -11 53 6 67 9 7 36 32 60 54 50 47 55 73 29 171 -10
38 -12 60 -5 67 15 15 12 42 -6 56 -23 20 -71 16 -97 -8 -28 -26 -135 -41
-170 -24 -12 6 -60 12 -107 14 -92 3 -123 18 -163 76 -25 37 -16 134 18 194
14 24 25 49 25 56 0 19 -20 14 -40 -10 l-18 -23 -7 28 c-11 41 1 96 25 122 14
15 38 24 72 28 29 4 59 14 67 22 15 14 12 15 -26 9 -49 -7 -58 9 -24 40 33 30
63 104 56 137 -7 30 6 38 34 20 12 -8 12 -14 1 -43 -7 -18 -22 -43 -33 -55
-27 -30 -17 -38 27 -23 38 12 66 43 66 72 0 19 11 22 78 18 23 -1 42 2 42 8 0
14 -35 42 -53 42 -10 0 -25 4 -35 9 -9 6 -42 19 -72 30 -30 10 -95 38 -145 61
-145 66 -153 70 -162 70 -4 0 -51 20 -103 44 -107 50 -301 126 -320 126 -7 0
-36 11 -64 24 -28 14 -109 50 -181 81 -217 95 -237 105 -290 139 -27 19 -71
43 -96 55 -75 36 -185 144 -222 219 -18 36 -37 67 -44 69 -6 2 -22 -9 -35 -25z
m1808 -2459 c-38 -146 -69 -226 -84 -211 -16 16 -15 88 2 140 8 24 16 55 20
69 7 32 78 127 84 111 2 -6 -8 -55 -22 -109z"/>
<path d="M5367 5523 c-12 -11 -8 -33 6 -33 6 0 19 5 27 10 13 9 13 11 0 20
-18 12 -24 12 -33 3z"/>
<path d="M5513 5514 c-3 -10 1 -30 9 -45 20 -34 10 -48 -13 -18 -9 12 -19 17
-22 12 -8 -12 71 -123 88 -123 19 0 35 24 41 62 6 37 -15 72 -66 108 -28 20
-31 20 -37 4z"/>
<path d="M4758 5508 c9 -9 15 -9 24 0 9 9 7 12 -12 12 -19 0 -21 -3 -12 -12z"/>
<path d="M4773 5442 c-43 -30 -83 -62 -90 -71 -37 -49 -83 -167 -83 -212 0
-32 -21 -121 -31 -129 -12 -10 -15 -70 -4 -80 6 -5 26 -5 50 0 22 5 84 13 138
16 108 8 114 13 77 69 -24 36 -26 110 -5 162 8 19 15 40 15 45 0 14 -43 -2
-64 -24 -10 -11 -34 -26 -52 -34 -23 -10 -32 -19 -28 -29 8 -20 23 -19 46 2
10 9 18 11 18 5 0 -16 -50 -52 -71 -52 -27 0 -25 43 4 73 12 13 42 35 67 48
34 19 44 30 43 47 -2 15 3 22 15 22 23 0 42 19 42 43 0 15 3 17 14 8 10 -9 16
-8 26 4 7 8 20 15 29 15 22 0 172 -60 193 -77 20 -18 63 -13 63 7 0 8 -15 17
-37 22 -67 14 -194 85 -228 127 -18 21 -40 41 -51 44 -12 3 -46 -14 -96 -51z"/>
<path d="M5220 5445 c-10 -12 -9 -16 5 -21 17 -7 38 13 29 28 -8 12 -20 10
-34 -7z"/>
<path d="M5301 5431 c-12 -12 -19 -26 -16 -31 9 -15 41 -12 55 6 11 12 11 18
-2 31 -14 14 -18 13 -37 -6z"/>
<path d="M5470 5394 c0 -18 26 -47 39 -43 8 3 3 13 -13 28 -14 14 -26 20 -26
15z"/>
<path d="M5367 5352 c-10 -24 -16 -29 -25 -20 -8 8 -15 8 -27 -2 -32 -27 -13
-64 41 -79 36 -9 41 -27 10 -35 -15 -4 -33 -20 -42 -37 -16 -31 -15 -32 19
-60 32 -27 34 -32 41 -110 4 -45 9 -86 12 -91 3 -5 21 1 40 13 19 11 41 18 50
15 12 -5 9 -14 -20 -49 -20 -24 -36 -47 -36 -50 0 -3 32 9 72 28 83 40 110 34
63 -15 -42 -44 -22 -49 29 -6 24 20 49 36 55 36 16 0 31 35 31 72 0 27 -6 37
-30 51 -31 19 -39 42 -17 50 7 3 5 6 -5 6 -23 1 -23 38 -3 106 12 39 13 56 4
78 -9 21 -16 26 -28 20 -27 -13 -129 -6 -156 11 -17 11 -37 14 -72 10 -45 -5
-47 -4 -29 10 11 9 25 16 32 16 15 0 24 34 13 51 -6 10 -12 5 -22 -19z m231
-164 c-5 -14 -88 -39 -88 -26 0 5 -9 8 -20 6 -10 -2 -20 2 -22 7 -2 6 22 13
52 16 30 3 61 6 68 7 8 1 12 -3 10 -10z"/>
<path d="M5160 5350 c0 -13 5 -20 13 -17 6 2 12 10 12 17 0 7 -6 15 -12 18 -8
2 -13 -5 -13 -18z"/>
<path d="M5473 5322 c-20 -13 0 -29 45 -37 37 -6 42 -5 42 13 0 14 -9 21 -31
26 -39 8 -41 7 -56 -2z"/>
<path d="M5257 5283 c-11 -10 -8 -38 5 -51 9 -9 14 -6 23 11 16 29 -7 62 -28
40z"/>
<path d="M6946 5283 c-3 -4 -107 -7 -229 -7 -216 -1 -223 -2 -271 -26 -28 -14
-59 -37 -70 -52 -18 -25 -18 -32 -6 -97 16 -84 6 -105 -66 -147 -41 -24 -51
-26 -112 -20 -184 18 -186 18 -222 -1 -46 -24 -90 -117 -130 -272 -36 -142
-65 -224 -86 -242 -22 -18 -28 -4 -17 49 9 48 0 92 -19 92 -12 0 -9 85 7 185
8 50 15 98 15 108 0 25 -29 21 -41 -7 -6 -13 -33 -38 -60 -56 -53 -34 -60 -55
-34 -100 l14 -25 1 34 c0 27 3 32 12 23 6 -6 15 -51 18 -99 4 -49 11 -96 15
-105 4 -10 3 -18 -1 -18 -5 0 -17 19 -28 43 l-19 42 -7 -30 c-3 -16 -14 -45
-24 -63 -17 -32 -16 -62 2 -62 4 0 18 9 30 20 12 11 23 20 24 20 8 0 2 -220
-6 -227 -4 -4 -13 0 -20 9 -7 10 -24 22 -37 28 -13 5 -31 14 -39 19 -28 16
-265 65 -309 63 -25 -1 -65 -8 -90 -17 -25 -8 -64 -19 -87 -25 -30 -7 -56 -26
-97 -69 -58 -60 -65 -75 -46 -86 11 -7 59 32 59 47 0 19 35 43 64 44 65 2 170
26 216 49 l49 25 21 -27 c11 -14 45 -36 75 -48 30 -12 66 -36 80 -53 14 -17
32 -29 39 -26 8 3 16 -4 20 -18 3 -13 27 -38 52 -57 25 -19 51 -46 58 -60 19
-36 9 -90 -18 -101 -11 -4 -30 -18 -41 -30 -11 -12 -44 -38 -72 -56 -29 -19
-53 -40 -53 -47 0 -7 -16 -21 -35 -31 -32 -18 -46 -36 -27 -36 19 0 62 26 62
38 0 6 9 12 19 12 11 0 23 5 26 10 4 6 25 22 48 36 23 14 54 40 69 57 24 28
29 31 47 20 12 -7 23 -13 25 -13 8 0 26 73 26 107 0 66 22 135 54 172 18 20
49 66 70 104 20 37 40 67 44 67 4 0 13 13 20 29 19 43 140 170 168 177 37 10
22 29 -20 27 -22 -2 -34 1 -31 7 3 6 -1 10 -9 10 -35 0 -12 45 39 76 27 17 29
17 16 1 -12 -15 -10 -17 22 -17 38 0 58 16 33 26 -24 9 -19 21 11 31 l27 9
-30 11 c-60 21 -118 -32 -194 -175 -20 -37 -41 -66 -46 -65 -6 1 -11 -14 -12
-34 -2 -40 -23 -70 -42 -58 -33 21 31 198 113 312 l59 83 42 -6 c94 -13 136
-36 192 -103 29 -35 67 -91 85 -125 18 -33 33 -62 34 -64 8 -10 39 17 56 49
11 22 26 39 34 39 16 0 71 -90 81 -132 9 -43 33 -32 49 22 4 14 17 41 29 60
11 19 28 52 37 74 20 49 35 56 50 22 7 -14 16 -26 20 -26 5 0 24 -13 42 -30
19 -16 38 -30 42 -30 4 0 30 -20 56 -45 68 -64 77 -61 77 28 0 88 11 179 23
191 5 5 13 -2 19 -18 5 -15 27 -45 48 -67 96 -101 126 -129 136 -126 7 3 11
42 11 105 0 55 3 103 7 107 13 13 262 -98 303 -135 71 -65 133 -98 199 -106
68 -8 70 -2 18 69 -45 62 -53 79 -42 97 6 10 25 2 82 -35 40 -27 88 -62 105
-77 41 -35 109 -56 125 -40 7 7 14 39 16 72 2 33 6 60 7 60 2 0 27 -23 56 -50
30 -28 70 -59 89 -69 41 -22 130 -38 130 -24 0 39 -219 265 -349 362 -44 32
-106 74 -138 91 -32 18 -78 45 -103 60 -25 15 -90 47 -145 71 -115 50 -138 66
-112 81 20 11 49 63 40 71 -3 4 -17 0 -32 -7 -38 -20 -134 -36 -217 -36 -97 0
-208 39 -230 81 -15 29 -25 35 -38 22z m-971 -483 c7 -11 -53 -70 -71 -70 -14
0 -8 24 16 70 10 18 44 18 55 0z m-295 -73 c0 -20 -1 -20 -16 -5 -9 9 -13 21
-9 27 10 16 25 3 25 -22z m200 -341 c0 -3 -4 -8 -10 -11 -5 -3 -10 -1 -10 4 0
6 5 11 10 11 6 0 10 -2 10 -4z m-280 -232 c15 -37 12 -40 -10 -11 -22 28 -25
37 -10 37 6 0 15 -12 20 -26z"/>
<path d="M5185 5228 c-22 -11 -42 -22 -44 -24 -2 -1 6 -18 18 -37 26 -43 27
-69 1 -92 -20 -18 -54 -107 -48 -127 7 -20 88 93 88 123 0 27 2 28 20 17 25
-16 47 4 66 59 18 52 17 63 -6 63 -10 0 -27 9 -37 19 -18 19 -19 19 -58 -1z"/>
<path d="M4531 5189 c-39 -92 -59 -246 -42 -334 7 -40 7 -39 20 35 7 41 19 89
26 105 6 17 18 54 25 84 12 49 11 55 -5 67 -15 11 -16 16 -5 29 10 12 10 19 2
27 -8 8 -14 5 -21 -13z"/>
<path d="M4830 5106 c0 -48 8 -56 41 -39 33 17 37 38 10 53 -33 17 -51 12 -51
-14z"/>
<path d="M4895 5001 c-3 -5 -1 -12 5 -16 5 -3 10 1 10 9 0 18 -6 21 -15 7z"/>
<path d="M4989 4983 c-1 -4 -1 -12 0 -16 1 -5 -10 -22 -24 -39 -14 -16 -25
-35 -25 -42 0 -21 39 -65 71 -81 37 -19 37 -11 1 30 -23 25 -28 39 -24 64 2
17 13 36 23 42 11 5 19 14 19 19 0 12 -40 34 -41 23z"/>
<path d="M5096 4904 c-8 -29 -1 -43 13 -28 14 14 17 47 5 51 -7 2 -15 -8 -18
-23z"/>
<path d="M5045 4910 c3 -5 8 -10 11 -10 2 0 4 5 4 10 0 6 -5 10 -11 10 -5 0
-7 -4 -4 -10z"/>
<path d="M5537 4734 c-26 -14 -37 -34 -17 -34 16 0 60 23 60 31 0 16 -16 17
-43 3z"/>
<path d="M5343 4677 c-49 -10 -53 -13 -53 -39 0 -18 5 -28 15 -28 8 0 15 5 15
11 0 7 11 9 31 5 24 -4 35 -1 55 19 45 45 34 51 -63 32z"/>
<path d="M5222 4643 c-15 -16 -77 -57 -139 -93 -122 -71 -183 -119 -183 -145
0 -14 8 -15 58 -9 31 3 64 10 72 14 8 4 29 10 45 14 30 6 30 6 -5 -13 -19 -11
-48 -32 -65 -46 l-30 -26 27 5 c41 9 123 60 123 77 0 21 56 77 62 61 7 -19 37
24 62 91 35 96 25 122 -27 70z"/>
<path d="M6162 4648 c3 -7 14 -14 26 -16 19 -3 72 -73 72 -95 0 -18 -19 -4
-30 23 -13 32 -39 45 -70 35 -28 -9 -25 -27 10 -47 75 -43 37 -136 -120 -290
-59 -59 -128 -117 -152 -129 -90 -45 -109 -84 -62 -129 14 -14 45 -44 68 -67
45 -47 130 -85 224 -103 30 -5 58 -12 60 -15 3 -3 7 -22 9 -42 2 -21 6 -39 8
-41 11 -11 55 11 61 31 9 32 34 57 56 57 33 0 19 18 -29 34 -26 9 -60 16 -77
16 -47 0 -96 21 -96 42 0 10 -19 38 -43 61 -37 36 -45 52 -56 105 -14 74 -8
91 14 39 8 -20 25 -42 37 -48 13 -6 31 -20 40 -29 22 -23 125 -62 152 -58 26
4 31 34 40 257 8 161 7 164 -13 158 -28 -7 -31 10 -19 94 9 62 9 76 -6 104
-18 33 -63 65 -91 65 -9 0 -15 -6 -13 -12z m-191 -602 c26 -50 20 -69 -12 -40
-35 31 -47 84 -20 84 5 0 19 -20 32 -44z"/>
<path d="M5418 4559 c13 -18 7 -49 -11 -49 -6 0 -24 12 -39 27 -19 18 -28 22
-28 12 0 -8 37 -56 83 -107 68 -77 84 -90 93 -77 6 8 22 15 35 16 22 0 23 1 5
12 -10 7 -34 27 -54 44 l-35 33 32 6 c46 9 45 18 -2 42 -23 12 -53 30 -67 39
-21 15 -23 15 -12 2z"/>
<path d="M5314 4523 c10 -57 16 -73 27 -73 20 0 20 29 -1 69 -26 51 -34 52
-26 4z"/>
<path d="M5290 4260 c0 -5 7 -10 15 -10 8 0 15 5 15 10 0 6 -7 10 -15 10 -8 0
-15 -4 -15 -10z"/>
<path d="M5531 4087 c-17 -22 -28 -107 -13 -107 19 0 33 39 30 82 -3 37 -5 39
-17 25z"/>
<path d="M0 4007 l0 -74 128 -6 c157 -8 232 -21 295 -54 66 -33 137 -101 171
-163 59 -108 58 -98 66 -1370 5 -781 11 -1193 19 -1250 50 -376 138 -581 328
-766 111 -108 223 -173 378 -221 122 -37 334 -43 481 -13 316 64 503 187 914
603 97 97 180 177 183 177 4 0 7 -180 7 -401 l0 -400 108 3 107 4 175 73 c96
40 211 88 255 106 44 18 136 56 205 85 69 28 204 83 300 122 96 39 180 76 187
82 10 9 6 26 -15 79 -30 78 -17 75 -152 32 -70 -21 -100 -26 -170 -23 -73 3
-91 7 -130 32 -25 15 -57 45 -71 65 -35 49 -68 152 -81 253 -7 54 -12 615 -15
1591 l-4 1507 -665 0 -665 0 3 -72 3 -73 130 -13 c191 -18 305 -56 373 -123
41 -41 65 -86 94 -180 l23 -74 3 -1204 3 -1205 -63 -64 c-78 -79 -275 -245
-356 -301 -33 -22 -94 -57 -134 -76 -40 -20 -80 -40 -88 -44 -9 -5 -56 -21
-105 -37 -82 -26 -103 -29 -230 -29 -155 0 -196 9 -315 71 -133 69 -208 157
-259 305 -65 186 -64 177 -68 1722 l-4 1397 -674 0 -675 0 0 -73z"/>
<path d="M4922 4006 c-13 -31 -8 -46 9 -29 6 6 9 21 7 34 -4 24 -5 23 -16 -5z"/>
<path d="M5772 3988 c-7 -7 -12 -20 -12 -29 0 -10 -4 -21 -10 -24 -6 -4 -6
-10 0 -18 6 -7 19 -24 30 -39 18 -23 25 -26 57 -21 33 6 36 4 30 -16 -10 -40
141 -201 190 -201 13 0 23 -6 23 -12 0 -9 3 -9 9 1 8 12 18 12 70 1 57 -12
144 -10 158 4 11 11 -17 32 -92 70 -60 30 -83 37 -108 32 -48 -10 -89 -7 -112
8 -28 19 -125 117 -137 139 -9 17 -7 18 22 12 36 -8 39 10 4 29 -10 6 -21 13
-24 16 -6 6 -59 43 -76 53 -6 3 -16 1 -22 -5z"/>
<path d="M6097 3983 c-9 -14 19 -37 76 -64 41 -18 50 -20 58 -8 14 23 10 38
-14 54 -29 19 -112 31 -120 18z"/>
<path d="M5115 3931 c-3 -6 -1 -27 5 -47 7 -20 9 -54 6 -78 -6 -35 -3 -46 14
-61 20 -18 20 -18 19 26 -1 106 -25 190 -44 160z"/>
<path d="M5400 3920 c-8 -5 -11 -12 -8 -16 10 -9 38 3 38 16 0 12 -10 13 -30
0z"/>
<path d="M5440 3920 c0 -5 4 -10 9 -10 6 0 13 5 16 10 3 6 -1 10 -9 10 -9 0
-16 -4 -16 -10z"/>
<path d="M5716 3895 c-4 -10 1 -15 14 -15 11 0 20 7 20 15 0 8 -6 15 -14 15
-8 0 -16 -7 -20 -15z"/>
<path d="M6361 3862 c-12 -22 4 -57 50 -114 l30 -38 -39 0 c-21 0 -41 -2 -44
-5 -3 -3 0 -23 5 -44 23 -87 -42 -115 -197 -86 -127 23 -183 51 -235 116 -23
29 -50 66 -59 81 -16 28 -43 42 -98 53 -18 3 -40 15 -50 26 -9 10 -21 19 -27
19 -13 0 -2 -62 17 -102 9 -17 16 -40 16 -51 0 -17 -5 -19 -47 -12 -42 6 -45
5 -34 -9 15 -17 77 -40 89 -32 16 10 32 -44 32 -108 0 -34 7 -85 15 -113 21
-71 64 -163 77 -163 13 0 10 11 -40 185 -39 133 -61 245 -49 245 3 0 11 -17
17 -37 7 -21 27 -67 45 -103 17 -36 42 -105 54 -155 12 -49 26 -94 30 -100 4
-5 15 -31 25 -57 18 -49 39 -62 49 -30 21 68 98 237 111 244 21 12 69 2 127
-27 56 -29 65 -39 87 -106 27 -77 39 -73 44 16 3 67 6 79 28 96 14 10 32 19
40 19 10 0 11 -3 4 -8 -17 -10 -50 -110 -40 -119 10 -10 93 79 141 151 39 60
43 71 17 57 -11 -6 -30 -4 -57 5 -22 7 -41 14 -42 14 -1 0 -7 9 -13 20 -8 16
-6 31 11 68 36 80 40 102 27 164 l-12 58 -48 0 c-36 0 -50 -4 -57 -18z m116
-349 c-9 -9 -19 -14 -22 -11 -3 3 2 13 11 22 9 9 19 14 22 11 3 -3 -2 -13 -11
-22z"/>
<path d="M6520 3796 c0 -29 -3 -69 -6 -87 -12 -61 25 -11 38 52 12 61 7 89
-17 89 -12 0 -15 -12 -15 -54z"/>
<path d="M5072 3818 c5 -15 28 -23 28 -10 0 5 -7 13 -16 16 -10 4 -14 1 -12
-6z"/>
<path d="M4765 3811 c-3 -6 -3 -16 0 -21 4 -6 3 -16 -3 -23 -12 -16 -34 -127
-35 -174 0 -39 19 -100 29 -90 6 6 25 310 19 315 -1 2 -6 -1 -10 -7z"/>
<path d="M5488 3764 c-72 -59 -220 -220 -245 -267 -9 -19 -11 -33 -5 -39 12
-12 87 59 158 147 26 33 50 62 53 65 7 5 87 103 110 133 24 31 -3 17 -71 -39z"/>
<path d="M5247 3733 c-7 -6 -10 -43 -4 -43 17 1 82 31 85 39 4 12 -70 16 -81
4z"/>
<path d="M5155 3698 c-4 -10 -13 -18 -21 -18 -18 0 -18 -17 -1 -27 8 -4 16
-18 20 -31 8 -35 -16 -38 -69 -7 -25 15 -48 24 -52 21 -3 -4 12 -25 35 -49 72
-76 97 -155 87 -277 l-7 -90 89 -90 c89 -91 147 -133 282 -205 39 -22 72 -43
72 -47 0 -4 -17 -8 -38 -8 -26 0 -66 15 -126 46 -48 25 -90 43 -94 39 -21 -21
87 -101 235 -174 56 -28 105 -51 108 -51 15 0 1 18 -32 39 -46 29 -31 41 53
41 67 0 124 9 124 19 0 3 -19 12 -42 19 -187 58 -352 203 -394 348 -14 48 -16
85 -11 198 l5 140 -30 -64 c-34 -70 -37 -97 -25 -245 8 -109 1 -138 -30 -119
-27 17 -77 245 -104 474 -5 47 -14 96 -18 110 -8 22 -10 23 -16 8z"/>
<path d="M5495 3660 c-6 -9 9 -14 68 -23 31 -5 36 8 8 23 -25 13 -68 13 -76 0z"/>
<path d="M5415 3590 c-10 -11 -16 -23 -13 -26 7 -6 38 24 38 37 0 13 -5 11
-25 -11z"/>
<path d="M4450 3505 c0 -9 20 -37 45 -63 51 -54 56 -48 17 23 -27 50 -62 72
-62 40z"/>
<path d="M4850 3430 c0 -93 -12 -116 -31 -60 -15 41 -33 39 -22 -2 12 -47 7
-356 -7 -422 -8 -38 -16 -56 -26 -56 -8 0 -12 5 -9 10 3 6 2 10 -3 10 -5 0
-10 -24 -11 -52 -3 -101 -24 -141 -163 -317 -61 -77 -130 -112 -307 -155 -150
-37 -199 -42 -263 -27 -32 8 -38 6 -43 -10 -4 -11 -10 -19 -14 -19 -4 0 -13
-12 -20 -26 -9 -20 -9 -35 0 -63 7 -20 13 -41 15 -47 6 -28 78 -15 196 34 40
17 99 -4 117 -42 15 -32 5 -84 -23 -121 -15 -20 -16 -20 -67 8 -60 33 -76 28
-31 -11 l31 -27 -15 -78 c-17 -87 -15 -228 2 -234 7 -2 14 15 19 44 8 57 34
119 78 188 33 51 52 95 67 155 16 62 112 230 131 230 5 0 9 -13 9 -30 0 -36
16 -39 53 -10 14 11 28 20 31 20 25 0 -30 -121 -104 -227 -40 -56 -49 -83 -30
-83 21 0 9 -18 -19 -30 -22 -9 -32 -22 -42 -58 -9 -32 -27 -60 -60 -92 -72
-70 -79 -147 -17 -193 38 -28 125 -34 167 -12 45 23 59 14 63 -37 2 -32 8 -44
21 -46 30 -6 47 17 47 65 0 59 -21 105 -60 133 -27 20 -31 27 -27 55 3 17 12
47 21 66 25 53 109 162 143 184 28 19 31 25 37 95 8 82 17 107 36 95 10 -6 11
0 7 26 -4 19 -3 41 3 49 7 12 12 12 29 -5 12 -10 22 -16 24 -14 4 6 51 103 56
114 2 6 -10 -2 -26 -17 -67 -64 -70 -18 -9 170 57 174 84 276 101 377 8 44 18
95 24 113 10 35 -10 196 -29 232 -7 13 -7 21 0 25 14 9 12 56 -5 85 -18 31
-18 40 -2 40 6 0 25 -20 40 -45 37 -58 92 -105 122 -105 25 0 47 25 60 68 5
18 2 22 -14 22 -12 0 -21 -4 -21 -10 0 -25 -18 -6 -29 30 -19 66 -46 67 -44 2
l1 -37 -20 25 c-28 35 -128 140 -134 140 -2 0 -4 -40 -4 -90z"/>
<path d="M4510 3492 c0 -14 33 -33 84 -49 67 -20 92 6 29 32 -50 21 -113 30
-113 17z"/>
<path d="M5600 3446 c0 -8 60 -12 72 -4 8 4 -4 8 -29 8 -24 0 -43 -2 -43 -4z"/>
<path d="M5710 3442 c0 -15 24 -32 47 -32 13 0 23 5 23 10 0 6 -9 10 -19 10
-11 0 -23 5 -26 10 -7 12 -25 13 -25 2z"/>
<path d="M6491 3391 c-32 -41 -81 -150 -81 -182 0 -22 26 -32 51 -19 10 6 28
28 38 49 22 41 43 171 31 184 -4 5 -22 -10 -39 -32z"/>
<path d="M4550 3391 c0 -14 60 -55 68 -46 7 6 -15 27 -50 46 -12 6 -18 6 -18
0z"/>
<path d="M4680 3292 c0 -23 26 -59 35 -50 4 4 5 18 1 31 -7 30 -36 45 -36 19z"/>
<path d="M5866 3251 c-25 -36 -27 -44 -21 -98 8 -65 23 -99 54 -127 14 -13 18
-22 11 -26 -21 -13 2 -61 41 -86 71 -45 79 -26 17 41 -22 25 -34 43 -25 39 24
-9 22 32 -5 92 -15 34 -22 73 -24 124 -1 41 -6 76 -11 77 -6 2 -22 -14 -37
-36z"/>
<path d="M5806 3245 c-20 -30 -21 -65 -2 -91 19 -26 22 -20 29 54 6 67 -1 76
-27 37z"/>
<path d="M4930 3230 c0 -22 12 -25 41 -10 28 16 23 30 -11 30 -23 0 -30 -4
-30 -20z"/>
<path d="M4540 3222 c0 -4 38 -45 85 -92 57 -57 85 -79 85 -67 0 24 -17 55
-53 97 -41 48 -117 88 -117 62z"/>
<path d="M5690 3220 c-12 -7 -11 -10 5 -15 11 -4 35 -13 53 -21 27 -12 32 -12
32 0 0 36 -55 58 -90 36z"/>
<path d="M5043 3199 c-26 -10 -44 -41 -34 -58 5 -7 4 -31 0 -54 -4 -23 -8
-103 -9 -177 0 -74 -5 -153 -11 -175 -10 -40 -67 -168 -115 -258 -23 -44 -23
-48 -6 -43 18 6 18 3 11 -41 -5 -27 -13 -66 -18 -88 -6 -22 -11 -68 -11 -102
0 -86 -18 -161 -41 -176 -10 -6 -19 -15 -19 -20 0 -12 65 -37 95 -37 14 0 25
-4 25 -9 0 -5 9 -7 20 -4 11 3 28 2 37 -2 39 -17 83 3 83 37 0 11 14 33 30 48
27 25 30 34 30 92 0 34 -9 114 -20 177 -11 62 -20 135 -20 162 l0 49 -30 -6
c-34 -7 -34 -6 -19 33 6 15 12 55 13 88 3 56 10 126 22 203 3 18 9 30 15 27 5
-4 9 3 9 15 0 13 -4 19 -11 14 -8 -4 -9 1 -3 17 5 13 9 52 9 87 0 68 9 76 43
39 15 -16 19 -30 15 -46 -4 -14 -2 -22 3 -18 19 11 37 -12 43 -54 9 -67 3
-107 -19 -114 -24 -7 -30 -34 -30 -129 0 -68 3 -83 22 -103 l21 -23 -29 0
c-16 0 -36 -5 -44 -11 -13 -9 -13 -12 4 -22 73 -46 96 -93 96 -191 0 -56 27
-174 46 -204 14 -21 13 -28 -2 -68 -32 -85 10 -116 108 -77 24 9 46 21 49 26
4 5 19 7 34 3 16 -4 24 -3 21 3 -7 11 29 25 42 17 4 -2 14 5 21 16 11 18 11
20 -4 15 -19 -8 -63 13 -86 39 -12 15 -15 37 -12 109 3 50 5 115 6 146 l1 56
24 -26 c16 -18 25 -22 29 -13 14 33 18 4 10 -70 -7 -74 -6 -84 12 -109 24 -32
26 -39 10 -39 -5 0 -7 5 -4 10 3 6 2 10 -2 10 -5 0 -9 -15 -9 -33 0 -33 1 -33
26 -20 34 18 81 17 74 -1 -3 -8 -14 -16 -25 -19 -10 -3 -19 -11 -19 -18 0 -9
22 -11 94 -6 89 6 94 5 99 -14 5 -18 8 -19 28 -9 19 11 24 9 45 -16 13 -16 23
-32 24 -36 0 -14 24 -8 48 11 28 24 28 27 -5 36 -27 6 -27 7 -9 21 14 10 35
12 73 8 49 -6 83 4 83 25 0 13 -185 6 -209 -8 -23 -13 -26 -12 -39 8 -8 12
-25 21 -39 21 -36 0 -23 24 18 32 83 17 139 34 151 47 11 11 8 12 -19 6 -18
-4 -34 -3 -34 2 -7 41 -5 51 7 46 8 -3 14 0 14 6 0 6 -6 11 -14 11 -8 0 -20
20 -27 45 -7 25 -18 45 -23 45 -5 0 -7 3 -4 6 3 3 -12 35 -33 72 -21 37 -39
69 -39 72 0 4 16 12 35 20 19 7 36 21 37 29 2 10 15 -3 33 -34 22 -38 29 -61
29 -102 0 -34 5 -53 12 -53 6 0 42 -34 79 -75 70 -79 107 -105 148 -105 29 0
102 -29 94 -37 -3 -3 -20 0 -38 6 -50 17 -67 13 -84 -19 -8 -16 -15 -31 -15
-33 0 -3 21 -8 48 -11 26 -4 80 -16 120 -27 90 -24 100 -24 78 0 -9 10 -14 25
-10 34 4 11 -2 16 -21 19 -38 5 -26 23 16 23 30 0 35 -3 31 -19 -3 -13 -1 -17
9 -14 9 3 13 17 11 41 -2 19 2 46 9 59 12 22 12 22 20 3 4 -11 8 -46 8 -77 1
-56 2 -58 27 -58 23 0 25 3 20 26 -7 28 15 74 35 74 11 0 8 -34 -5 -70 -3 -8
-2 -22 4 -30 8 -12 13 -11 34 9 l24 23 8 -24 c4 -12 6 -38 6 -55 -2 -39 8 -41
72 -13 48 20 66 47 66 96 0 36 -23 30 -74 -23 -25 -25 -48 -44 -51 -41 -3 3
17 27 45 54 52 52 78 114 47 114 -12 0 -15 8 -10 38 l5 37 -25 -36 c-31 -44
-55 -55 -75 -35 -13 12 -13 18 -2 30 7 9 21 16 31 16 18 0 24 11 34 71 7 41
-5 52 -42 38 -23 -8 -23 -27 -1 -55 9 -13 -20 -24 -62 -24 -16 0 -34 -11 -50
-31 l-26 -31 -49 51 c-27 28 -55 61 -62 73 -16 29 -16 65 -1 70 8 3 13 31 14
79 1 58 -3 82 -19 112 -11 20 -24 37 -28 37 -14 0 -15 -25 -2 -50 13 -25 12
-25 -30 -32 -62 -10 -115 -9 -135 2 -9 5 -59 21 -110 36 -96 27 -201 80 -202
101 0 22 -21 25 -43 6 -12 -11 -27 -23 -34 -26 -16 -10 -196 39 -256 69 -78
40 -199 174 -157 174 26 0 4 23 -47 49 -66 33 -76 43 -126 127 -46 77 -65 94
-94 83z m142 -519 c9 -14 -4 -52 -16 -45 -12 8 -12 55 0 55 6 0 13 -5 16 -10z
m279 -178 c21 -45 36 -90 33 -100 -3 -15 -5 -15 -11 3 -4 11 -25 55 -46 97
-41 78 -54 127 -26 98 7 -8 30 -52 50 -98z m786 -93 c0 -5 -4 -9 -10 -9 -5 0
-10 7 -10 16 0 8 5 12 10 9 6 -3 10 -10 10 -16z m-860 -74 c0 -6 -7 -20 -15
-31 -14 -18 -14 -17 -15 12 0 21 5 31 15 31 8 0 15 -5 15 -12z m-482 -182 c2
-55 -2 -92 -12 -115 -14 -31 -14 -27 -15 85 -1 91 2 118 12 115 8 -3 13 -32
15 -85z"/>
<path d="M5126 2934 c-8 -20 0 -32 14 -18 5 5 5 15 1 22 -6 11 -10 10 -15 -4z"/>
<path d="M4600 2870 c0 -5 5 -10 11 -10 5 0 7 5 4 10 -3 6 -8 10 -11 10 -2 0
-4 -4 -4 -10z"/>
<path d="M4560 2785 c0 -9 9 -15 21 -15 18 0 19 2 9 15 -7 8 -16 15 -21 15 -5
0 -9 -7 -9 -15z"/>
<path d="M4348 2748 c-17 -25 -23 -47 -23 -85 0 -29 -3 -53 -6 -53 -10 0 -45
44 -73 93 -31 54 -45 56 -60 9 -6 -17 -21 -40 -33 -52 -28 -26 -31 -78 -5 -87
9 -3 25 -14 35 -25 13 -13 33 -18 75 -18 31 0 64 -5 72 -10 13 -9 11 -13 -9
-29 -31 -24 -22 -51 17 -51 31 0 62 26 62 53 0 16 24 41 103 107 20 18 37 38
37 45 0 7 -14 25 -32 40 -32 27 -74 31 -122 10 -20 -9 -20 0 -1 63 11 33 -10
27 -37 -10z"/>
<path d="M5080 2595 c0 -9 6 -12 15 -9 8 4 15 10 15 15 0 5 -7 9 -15 9 -8 0
-15 -7 -15 -15z"/>
<path d="M6624 2364 c-7 -28 0 -38 33 -48 34 -11 50 27 23 54 -27 27 -48 25
-56 -6z"/>
<path d="M6400 2372 c0 -12 19 -26 26 -19 2 2 -2 10 -11 17 -9 8 -15 8 -15 2z"/>
<path d="M5890 2260 c0 -5 5 -10 10 -10 6 0 10 5 10 10 0 6 -4 10 -10 10 -5 0
-10 -4 -10 -10z"/>
<path d="M4731 2120 c0 -26 -6 -51 -12 -57 -16 -16 -3 -43 21 -43 24 0 25 19
5 95 l-13 50 -1 -45z"/>
<path d="M5180 2096 c0 -9 5 -16 10 -16 6 0 10 4 10 9 0 6 -4 13 -10 16 -5 3
-10 -1 -10 -9z"/>
<path d="M6340 2057 c0 -7 14 -39 31 -71 31 -57 31 -59 15 -92 -18 -39 -44
-44 -102 -19 -45 18 -73 52 -74 87 0 34 -5 37 -77 44 -48 5 -62 3 -76 -10 -23
-23 -21 -58 6 -111 19 -38 28 -46 60 -51 39 -7 48 -18 21 -28 -49 -19 -101 5
-110 50 -3 18 -12 38 -20 45 -15 12 -34 4 -34 -15 0 -8 -7 -19 -15 -26 -13
-11 -15 -6 -15 34 0 65 11 80 77 106 102 39 102 39 61 39 -43 1 -118 -29 -147
-58 -17 -17 -20 -29 -15 -59 5 -31 0 -50 -22 -93 -38 -72 -37 -69 -25 -69 6 0
20 9 32 21 l21 21 -7 -22 c-6 -20 -5 -21 24 -15 38 8 40 -5 7 -48 -24 -32 -54
-123 -43 -133 3 -3 25 5 49 17 47 24 178 34 178 13 0 -15 44 -34 59 -24 19 11
9 45 -14 46 -11 0 -31 5 -45 11 -14 5 -32 13 -40 16 -9 3 -6 6 9 6 14 1 38 13
54 29 22 21 37 27 72 26 58 -1 128 -43 157 -94 18 -31 37 -46 91 -70 88 -39
101 -38 78 8 -15 29 -31 87 -30 108 0 11 5 6 10 -13 12 -42 33 -44 27 -3 -4
27 -2 30 24 30 39 0 48 27 17 51 -35 27 -63 24 -75 -8 -9 -24 -12 -11 -18 79
-5 58 -5 111 -2 117 4 6 23 11 42 11 19 0 34 5 34 10 0 6 -13 10 -30 10 -76 0
-148 37 -105 54 31 12 15 31 -27 33 -23 1 -44 6 -46 12 -5 16 -42 14 -42 -2z
m124 -123 c12 -5 16 -20 16 -58 l-1 -51 -24 45 c-34 64 -32 80 9 64z m-164
-124 c12 -8 12 -10 -5 -9 -11 0 -29 4 -40 9 -18 8 -18 9 5 9 14 0 32 -4 40 -9z
m60 0 c0 -5 -10 -10 -22 -9 -22 0 -22 1 -3 9 11 5 21 9 23 9 1 1 2 -3 2 -9z
m100 -9 c13 -26 13 -158 -1 -166 -19 -13 -38 28 -33 70 3 22 6 57 5 78 0 40
12 48 29 18z m-78 -48 c17 -15 25 -43 12 -43 -12 0 -64 42 -64 51 0 15 32 10
52 -8z m-306 -38 c1 -37 -5 -42 -24 -23 -19 19 -15 58 6 58 13 0 17 -9 18 -35z"/>
<path d="M5600 2031 c-7 -14 -6 -31 5 -60 16 -47 10 -54 -36 -41 -50 15 -59
12 -59 -15 0 -29 -11 -31 -46 -8 -21 13 -30 14 -45 5 -10 -7 -27 -12 -38 -12
-10 0 -21 -6 -24 -13 -3 -8 -29 -19 -59 -25 -52 -10 -54 -10 -80 19 -33 35
-61 39 -56 7 6 -42 68 -62 205 -68 106 -5 125 -9 145 -27 13 -12 32 -23 43
-25 11 -2 25 -15 32 -29 21 -43 33 -48 101 -42 58 5 65 9 89 42 15 20 44 59
65 87 41 55 51 110 22 121 -8 3 -13 12 -10 19 3 8 1 14 -4 14 -5 0 -18 -20
-29 -45 -11 -25 -28 -48 -38 -51 -10 -3 -27 -10 -38 -14 -24 -11 -125 -24
-125 -17 0 3 24 11 53 17 63 15 84 32 97 78 5 20 8 37 7 38 -1 1 -28 -3 -60
-8 -79 -14 -111 -1 -102 42 7 34 1 39 -15 11z"/>
<path d="M6184 2015 c11 -8 31 -15 45 -15 34 0 15 16 -29 24 -33 7 -34 6 -16
-9z"/>
<path d="M5160 1960 c0 -5 5 -10 10 -10 6 0 10 5 10 10 0 6 -4 10 -10 10 -5 0
-10 -4 -10 -10z"/>
<path d="M4673 1933 c-34 -23 -28 -31 20 -26 29 3 54 -2 82 -16 37 -19 38 -20
13 -21 -15 0 -33 -7 -42 -15 -8 -8 -23 -15 -34 -15 -10 0 -40 -7 -66 -16 -28
-10 -62 -14 -82 -11 -28 5 -34 3 -34 -13 0 -29 11 -50 26 -50 8 0 14 4 14 9 0
6 15 5 37 -1 22 -6 67 -7 107 -3 77 7 316 80 316 96 0 6 -4 8 -9 5 -4 -3 -17
1 -27 9 -16 12 -22 11 -39 -3 -11 -9 -17 -13 -13 -8 10 12 -30 66 -48 66 -8 0
-14 -7 -14 -15 0 -22 -24 -18 -90 15 -67 34 -85 36 -117 13z"/>
<path d="M6279 1927 c12 -12 63 -13 68 -1 2 7 -11 11 -36 10 -22 0 -37 -4 -32
-9z"/>
<path d="M5010 1902 c0 -16 49 -54 60 -47 8 5 3 15 -16 31 -31 25 -44 29 -44
16z"/>
<path d="M5103 1893 c-20 -7 -15 -23 7 -23 11 0 20 4 20 9 0 13 -12 19 -27 14z"/>
<path d="M4686 1881 c-7 -10 43 -25 52 -16 7 7 -18 25 -35 25 -6 0 -14 -4 -17
-9z"/>
<path d="M5015 1783 c-41 -8 -170 -56 -184 -67 -8 -6 -63 -13 -128 -15 -112
-3 -113 -3 -113 -28 0 -57 7 -59 155 -58 l137 0 30 33 c22 26 27 37 18 47 -9
11 -5 16 22 23 18 6 41 13 51 17 10 4 17 3 17 -4 0 -6 -9 -11 -20 -11 -26 0
-26 -17 1 -25 12 -4 18 -12 15 -21 -4 -11 4 -14 34 -14 42 0 58 13 41 34 -9
10 -9 20 0 39 22 49 -4 66 -76 50z m-121 -93 c-16 -16 -111 -50 -118 -42 -4 3
15 16 41 28 52 24 94 31 77 14z m-154 -40 c10 -6 2 -7 -25 -3 -49 7 -58 13
-19 13 16 0 36 -5 44 -10z"/>
<path d="M5433 1713 c-15 -32 -29 -61 -31 -66 -2 -4 14 -14 35 -22 70 -28 101
-47 106 -66 4 -16 3 -17 -17 -5 -44 28 -246 56 -246 34 0 -5 -15 0 -33 11 -19
11 -47 20 -63 19 -16 0 -53 4 -83 11 -37 7 -58 8 -66 1 -7 -6 -35 -12 -61 -14
-27 -2 -67 -11 -89 -20 -25 -11 -81 -20 -148 -23 -96 -5 -109 -4 -121 12 -7
10 -18 15 -24 11 -34 -21 11 -91 65 -101 46 -8 63 -21 63 -46 0 -23 -26 -25
-34 -2 -6 14 -8 14 -20 -3 -14 -18 -15 -18 -34 0 -34 30 -57 0 -29 -38 8 -11
43 -24 98 -35 166 -35 193 -47 274 -130 108 -111 141 -150 171 -205 31 -57 41
-128 16 -118 -10 3 -13 1 -8 -6 11 -19 -65 -34 -103 -21 -68 24 -58 100 15
113 52 10 29 28 -32 24 -40 -2 -51 -7 -63 -29 -23 -41 0 -103 58 -161 61 -61
103 -70 174 -37 69 31 75 36 98 83 22 46 23 58 7 74 -9 9 -16 8 -29 -4 -15
-14 -19 -13 -37 11 -11 14 -23 31 -25 38 -2 7 -7 9 -11 5 -4 -3 -3 -15 3 -27
7 -12 7 -22 2 -26 -15 -8 -31 29 -31 70 0 30 -13 55 -65 126 -36 49 -63 89
-59 89 3 0 34 -28 67 -62 50 -51 62 -59 65 -44 5 26 -25 101 -56 138 -37 44
-220 188 -238 188 -8 0 -13 4 -10 8 2 4 -18 9 -45 10 -35 1 -49 -2 -49 -11 0
-19 37 -51 89 -77 40 -20 82 -59 104 -97 15 -25 -1 -26 -30 -4 -86 67 -112 85
-151 102 -67 31 -82 92 -25 104 51 11 103 38 103 52 0 25 25 7 26 -18 0 -33
11 -49 35 -49 10 0 19 -4 19 -8 0 -5 21 -23 48 -40 113 -74 216 -212 228 -308
3 -30 10 -54 15 -54 13 0 11 18 -10 102 -36 140 -86 211 -209 297 -34 24 -62
48 -62 52 0 19 39 7 97 -30 50 -33 70 -56 124 -140 90 -143 87 -133 95 -253 3
-59 10 -108 13 -108 4 0 12 5 18 11 5 5 25 11 42 11 17 1 34 4 36 9 3 4 0 55
-6 114 -8 76 -9 113 -1 128 23 47 23 70 -3 158 -29 103 -28 130 4 79 27 -43
46 -109 66 -224 26 -153 18 -225 -29 -259 -7 -4 -3 -14 12 -25 22 -17 23 -21
11 -65 -21 -85 8 -74 81 29 39 57 53 86 54 115 1 22 -1 42 -4 44 -3 2 -17 -25
-30 -61 -41 -109 -51 -73 -25 91 34 219 54 282 55 180 1 -33 5 -69 9 -80 7
-17 10 -14 20 21 6 23 14 62 17 88 9 61 24 40 24 -32 0 -73 24 -66 28 8 3 52
15 80 33 80 16 0 9 -53 -20 -160 -35 -124 -55 -182 -78 -217 -16 -24 -16 -26
0 -38 9 -7 17 -17 17 -24 0 -17 25 -13 43 7 9 10 27 42 40 72 50 116 50 116
54 99 2 -9 -3 -36 -12 -60 -9 -24 -19 -65 -21 -91 l-4 -47 38 -6 c74 -12 108
-25 135 -53 25 -26 32 -28 69 -22 23 5 47 15 54 24 6 9 23 16 38 16 18 0 29 7
34 21 8 20 9 20 35 -7 15 -15 27 -33 27 -40 0 -8 18 -25 40 -39 25 -16 42 -35
46 -53 10 -46 14 -53 24 -47 5 3 10 30 10 59 0 48 -4 56 -45 101 -25 28 -55
64 -67 80 -33 47 -126 125 -148 125 -15 0 -20 -7 -20 -25 0 -30 -10 -31 -40
-7 -18 15 -22 25 -16 46 14 58 83 46 159 -28 94 -90 175 -107 88 -18 -65 67
-66 105 -2 159 l26 22 -37 1 c-20 0 -49 5 -64 10 -26 10 -27 12 -21 73 4 34
10 72 13 85 8 27 -11 30 -38 5 -10 -9 -21 -14 -24 -11 -10 11 8 99 25 115 15
16 16 15 19 -8 6 -50 13 -69 26 -69 17 0 29 42 21 73 -5 17 -18 27 -50 36 -54
16 -105 2 -134 -36 -11 -13 -25 -22 -31 -18 -22 14 -50 -26 -50 -72 0 -28 -9
-61 -25 -91 -20 -38 -25 -42 -25 -23 0 14 7 54 16 89 10 39 13 67 7 73 -5 5
-34 10 -63 12 l-54 2 -10 -36 c-11 -35 -12 -36 -34 -21 -13 8 -47 15 -84 16
-42 1 -63 5 -66 14 -3 11 0 12 14 5 11 -5 45 -7 77 -5 51 3 59 7 72 32 12 23
25 31 70 40 36 7 55 16 55 26 0 8 -9 14 -21 14 -19 0 -19 1 -5 16 27 26 8 37
-58 32 -33 -3 -86 -2 -116 2 -30 4 -57 6 -59 4 -2 -2 4 -12 13 -23 17 -18 16
-20 -5 -26 -23 -8 -39 7 -39 37 0 9 -11 29 -25 44 -14 15 -23 30 -19 33 3 3
18 -9 33 -27 30 -38 50 -32 25 7 -22 34 -66 81 -76 81 -5 0 -20 -26 -35 -57z
m-197 -230 c16 -21 47 -66 68 -101 36 -60 38 -66 43 -180 3 -64 3 -115 0 -112
-2 3 -19 47 -37 99 -43 127 -109 250 -188 349 l-35 44 59 -31 c33 -16 73 -47
90 -68z m774 32 c0 -19 -2 -35 -4 -35 -2 0 -6 16 -8 35 -2 19 0 35 4 35 4 0 8
-16 8 -35z m-83 -97 c-2 -13 -4 -5 -4 17 -1 22 1 32 4 23 2 -10 2 -28 0 -40z
m73 -57 c0 -14 -28 -33 -39 -27 -16 10 -1 36 20 36 10 0 19 -4 19 -9z m60 -37
c0 -14 -4 -23 -10 -19 -5 3 -10 15 -10 26 0 10 5 19 10 19 6 0 10 -12 10 -26z
m-115 -2 c19 -14 37 -54 27 -64 -5 -5 -26 -11 -47 -15 -30 -5 -37 -3 -33 8 2
8 19 19 36 24 l32 11 -22 22 c-21 20 -16 31 7 14z m5 -141 c0 -11 -39 -41 -52
-41 -15 0 -8 29 10 39 22 13 42 14 42 2z m-154 -99 c-18 -16 -18 -16 -6 6 6
13 14 21 18 18 3 -4 -2 -14 -12 -24z"/>
<path d="M5328 1663 c-17 -4 -25 -33 -12 -46 11 -10 55 16 52 31 -3 17 -15 22
-40 15z"/>
<path d="M6570 1611 c0 -6 5 -13 10 -16 6 -3 10 1 10 9 0 9 -4 16 -10 16 -5 0
-10 -4 -10 -9z"/>
<path d="M6297 1554 c-69 -98 -71 -184 -3 -158 22 8 40 68 27 92 -8 14 -5 28
9 55 39 72 15 79 -33 11z"/>
<path d="M6169 1430 c-32 -19 -35 -120 -4 -120 9 0 16 18 20 54 9 66 6 78 -16
66z"/>
<path d="M4552 1354 c4 -21 22 -23 26 -1 2 10 -3 17 -13 17 -10 0 -15 -6 -13
-16z"/>
<path d="M4515 1330 c-3 -5 1 -10 9 -10 9 0 16 5 16 10 0 6 -4 10 -9 10 -6 0
-13 -4 -16 -10z"/>
<path d="M4700 1317 c0 -21 33 -42 148 -94 93 -42 186 -104 196 -130 3 -7 10
-13 16 -13 24 0 6 34 -52 95 -47 51 -80 75 -145 106 -96 47 -163 61 -163 36z"/>
<path d="M4547 1313 c-11 -10 -8 -113 3 -113 20 0 50 41 50 68 0 39 -32 67
-53 45z"/>
<path d="M6280 1305 c0 -8 2 -15 4 -15 2 0 6 7 10 15 3 8 1 15 -4 15 -6 0 -10
-7 -10 -15z"/>
<path d="M4461 1285 c-24 -32 -37 -83 -23 -97 15 -15 34 1 27 23 -4 12 3 31
19 52 14 19 26 37 26 40 0 17 -30 5 -49 -18z"/>
<path d="M4617 1234 c-14 -29 -33 -58 -40 -66 -29 -28 -28 -52 0 -65 38 -18
43 -17 43 15 0 15 7 54 15 87 21 79 14 91 -18 29z"/>
<path d="M4507 1233 c-12 -11 -8 -23 8 -23 8 0 15 7 15 15 0 16 -12 20 -23 8z"/>
<path d="M4689 1238 c-15 -51 -19 -83 -11 -95 4 -7 35 -18 68 -24 32 -6 69
-17 81 -25 14 -9 34 -12 50 -8 21 4 24 3 13 -5 -17 -12 -14 -16 20 -26 22 -7
23 -6 11 9 -12 14 -10 15 17 10 16 -3 38 -2 48 4 15 8 12 14 -27 42 -83 61
-263 139 -270 118z"/>
<path d="M5404 1224 c3 -9 6 -18 6 -20 0 -2 4 -4 9 -4 5 0 7 9 4 20 -3 11 -10
20 -15 20 -6 0 -7 -7 -4 -16z"/>
<path d="M6203 1209 c-18 -18 -16 -60 4 -89 30 -44 48 -50 56 -20 3 12 14 20
26 20 30 0 58 69 34 83 -23 13 -109 17 -120 6z"/>
<path d="M5584 1187 c-3 -9 -4 -24 -2 -34 3 -16 5 -15 17 6 9 16 10 26 2 34
-7 7 -12 6 -17 -6z"/>
<path d="M5620 1184 c0 -8 5 -12 10 -9 6 4 8 11 5 16 -9 14 -15 11 -15 -7z"/>
<path d="M4373 1128 c-29 -14 -29 -36 -2 -99 24 -54 52 -64 56 -19 1 14 5 37
9 52 4 19 1 36 -10 53 -18 28 -21 28 -53 13z"/>
<path d="M4515 1080 c-4 -14 -9 -46 -9 -72 -1 -26 -5 -50 -9 -54 -11 -12 -8
-24 6 -24 8 0 23 10 35 23 22 23 22 23 3 87 -16 58 -19 62 -26 40z"/>
<path d="M4746 1063 c23 -22 109 -63 129 -63 8 0 15 8 15 19 0 23 -82 61 -131
61 -32 0 -32 0 -13 -17z"/>
<path d="M4712 1029 c-18 -7 -22 -14 -17 -29 8 -26 -34 -114 -79 -164 l-35
-38 -28 20 -28 20 3 -37 c5 -48 -17 -69 -53 -53 -30 14 -33 38 -5 47 24 8 26
23 4 32 -21 8 -42 -15 -50 -53 -5 -26 -1 -35 30 -62 57 -50 119 -39 198 36 44
41 20 46 -25 5 -35 -31 -42 -35 -45 -19 -2 10 16 48 41 85 25 37 54 85 66 107
12 21 31 53 42 71 22 35 16 45 -19 32z"/>
<path d="M4753 943 c-13 -20 -18 -47 -18 -103 -1 -72 -28 -170 -47 -170 -5 0
-8 -7 -8 -16 0 -14 12 -15 103 -9 56 4 104 9 106 11 2 2 -15 24 -38 49 -71 77
-97 161 -71 229 13 36 -5 43 -27 9z"/>
<path d="M5360 963 c0 -19 22 -63 32 -63 5 0 6 10 3 23 -8 26 -35 57 -35 40z"/>
<path d="M4845 930 c-14 -22 6 -77 38 -108 47 -46 158 -91 157 -64 -1 9 -84
62 -97 62 -17 0 -42 34 -56 75 -14 41 -30 54 -42 35z"/>
<path d="M6100 905 c0 -8 9 -19 20 -25 15 -8 20 -8 20 3 0 14 -19 37 -32 37
-4 0 -8 -7 -8 -15z"/>
<path d="M5316 864 c-6 -24 -2 -43 8 -33 11 10 17 59 8 59 -5 0 -13 -12 -16
-26z"/>
<path d="M5796 873 c58 -25 73 -40 80 -79 5 -26 2 -40 -12 -55 -19 -21 -18
-21 11 -45 17 -13 33 -24 38 -24 4 0 7 -7 7 -15 0 -11 12 -15 50 -15 51 0 61
8 35 30 -8 7 -15 9 -15 5 0 -4 -7 -2 -14 5 -24 19 -56 94 -56 129 0 28 -5 34
-42 51 -24 10 -61 21 -83 24 l-40 7 41 -18z"/>
<path d="M5615 850 c-4 -6 9 -17 29 -25 19 -8 37 -19 41 -25 9 -15 41 -12 56
6 11 14 10 19 -10 35 -25 21 -105 27 -116 9z"/>
<path d="M6014 842 c-6 -4 -16 -17 -23 -30 -10 -19 -9 -28 6 -54 42 -72 130
-96 190 -52 34 26 40 54 17 88 -19 30 -44 34 -44 7 0 -26 -19 -38 -59 -38 -26
0 -37 7 -51 30 -10 16 -16 36 -13 43 6 15 -5 18 -23 6z"/>
<path d="M5788 823 c6 -2 18 -2 25 0 6 3 1 5 -13 5 -14 0 -19 -2 -12 -5z"/>
<path d="M5563 790 c4 -15 0 -20 -14 -20 -10 0 -19 -4 -19 -10 0 -5 7 -10 15
-10 47 0 109 -69 90 -99 -4 -8 26 -11 95 -11 91 0 101 2 98 18 -1 9 1 23 5 30
9 13 1 32 -14 32 -5 0 -14 -11 -19 -25 -7 -18 -17 -25 -35 -25 -22 0 -25 4
-20 20 4 14 2 20 -8 20 -18 0 -47 32 -47 52 0 24 -45 48 -91 48 -36 0 -41 -2
-36 -20z"/>
<path d="M5760 785 c13 -16 70 -21 70 -6 0 12 -25 21 -57 21 -21 0 -24 -2 -13
-15z"/>
<path d="M5170 737 c-31 -13 -78 -38 -105 -57 -43 -30 -47 -35 -28 -38 12 -2
42 6 67 17 59 27 96 28 96 1 0 -18 7 -20 64 -20 36 0 68 5 71 10 14 23 -7 69
-41 89 -44 26 -56 26 -124 -2z"/>
<path d="M5470 749 c0 -5 5 -7 10 -4 6 3 10 8 10 11 0 2 -4 4 -10 4 -5 0 -10
-5 -10 -11z"/>
<path d="M5530 706 c0 -5 60 -66 65 -66 12 0 3 28 -12 42 -17 14 -53 31 -53
24z"/>
<path d="M5402 668 c6 -17 36 -34 44 -25 4 4 -1 14 -12 22 -23 18 -37 19 -32
3z"/>
<path d="M5474 655 c-18 -13 -15 -14 29 -15 46 0 62 12 31 24 -24 9 -39 7 -60
-9z"/>
<path d="M5881 654 c0 -11 3 -14 6 -6 3 7 2 16 -1 19 -3 4 -6 -2 -5 -13z"/>
<path d="M6075 660 c3 -5 8 -10 11 -10 2 0 4 5 4 10 0 6 -5 10 -11 10 -5 0 -7
-4 -4 -10z"/>
<path d="M6118 663 c-22 -5 -24 -23 -3 -23 8 0 15 4 15 8 0 5 15 6 33 4 17 -3
30 -2 27 0 -9 9 -54 15 -72 11z"/>
</g>
</svg>
